<svg width="52" height="51" viewBox="0 0 52 51" fill="none" xmlns="http://www.w3.org/2000/svg">
<path d="M28.6985 2.125C26.1624 2.125 23.7302 3.13247 21.9368 4.92579C20.1435 6.71911 19.136 9.15137 19.136 11.6875V19.125H13.8235C13.5418 19.125 13.2715 19.2369 13.0722 19.4362C12.873 19.6355 12.761 19.9057 12.761 20.1875V28.6875C12.761 28.9693 12.873 29.2395 13.0722 29.4388C13.2715 29.6381 13.5418 29.75 13.8235 29.75H19.136V47.8125C19.136 48.0943 19.248 48.3645 19.4472 48.5638C19.6465 48.7631 19.9168 48.875 20.1985 48.875H28.6985C28.9803 48.875 29.2506 48.7631 29.4498 48.5638C29.6491 48.3645 29.761 48.0943 29.761 47.8125V29.75H35.0735C35.3106 29.7499 35.5407 29.6706 35.7275 29.5247C35.9142 29.3788 36.0468 29.1746 36.1042 28.9446L38.2292 20.4446C38.2682 20.288 38.2711 20.1246 38.2376 19.9667C38.204 19.8089 38.135 19.6607 38.0356 19.5335C37.9363 19.4063 37.8093 19.3034 37.6642 19.2326C37.5192 19.1619 37.3599 19.125 37.1985 19.125H29.761V15.9375C29.761 15.0921 30.0969 14.2814 30.6946 13.6836C31.2924 13.0858 32.1032 12.75 32.9485 12.75H37.1985C37.4803 12.75 37.7506 12.6381 37.9498 12.4388C38.1491 12.2395 38.261 11.9693 38.261 11.6875V3.1875C38.261 2.90571 38.1491 2.63546 37.9498 2.4362C37.7506 2.23694 37.4803 2.125 37.1985 2.125H28.6985Z" fill="black"/>
</svg>
