<svg width="62" height="61" viewBox="0 0 62 61" fill="none" xmlns="http://www.w3.org/2000/svg">
<path fill-rule="evenodd" clip-rule="evenodd" d="M19.0735 1.90625C14.5234 1.90625 10.1597 3.71378 6.94225 6.9312C3.72483 10.1486 1.9173 14.5124 1.9173 19.0625V41.9375C1.9173 46.4876 3.72483 50.8514 6.94225 54.0688C10.1597 57.2862 14.5234 59.0938 19.0735 59.0938H41.9485C46.4987 59.0938 50.8624 57.2862 54.0798 54.0688C57.2973 50.8514 59.1048 46.4876 59.1048 41.9375V19.0625C59.1048 14.5124 57.2973 10.1486 54.0798 6.9312C50.8624 3.71378 46.4987 1.90625 41.9485 1.90625H19.0735ZM5.7298 19.0625C5.7298 11.6917 11.7027 5.71875 19.0735 5.71875H41.9485C49.3194 5.71875 55.2923 11.6917 55.2923 19.0625V41.9375C55.2923 49.3083 49.3194 55.2813 41.9485 55.2813H19.0735C15.5346 55.2813 12.1405 53.8754 9.63809 51.373C7.13565 48.8705 5.7298 45.4765 5.7298 41.9375V19.0625ZM49.5735 15.8854C49.5735 16.728 49.2388 17.5361 48.643 18.132C48.0472 18.7278 47.2391 19.0625 46.3965 19.0625C45.5539 19.0625 44.7457 18.7278 44.1499 18.132C43.5541 17.5361 43.2194 16.728 43.2194 15.8854C43.2194 15.0428 43.5541 14.2347 44.1499 13.6389C44.7457 13.0431 45.5539 12.7083 46.3965 12.7083C47.2391 12.7083 48.0472 13.0431 48.643 13.6389C49.2388 14.2347 49.5735 15.0428 49.5735 15.8854ZM30.511 19.6979C29.0925 19.6979 27.6878 19.9773 26.3773 20.5202C25.0667 21.063 23.8759 21.8587 22.8728 22.8618C21.8698 23.8648 21.0741 25.0557 20.5312 26.3662C19.9884 27.6768 19.709 29.0815 19.709 30.5C19.709 31.9186 19.9884 33.3232 20.5312 34.6338C21.0741 35.9443 21.8698 37.1352 22.8728 38.1382C23.8759 39.1413 25.0667 39.937 26.3773 40.4798C27.6878 41.0227 29.0925 41.3021 30.511 41.3021C33.3759 41.3021 36.1235 40.164 38.1493 38.1382C40.1751 36.1124 41.3131 33.3649 41.3131 30.5C41.3131 27.6351 40.1751 24.8876 38.1493 22.8618C36.1235 20.836 33.3759 19.6979 30.511 19.6979ZM15.8965 30.5C15.8965 26.624 17.4362 22.9067 20.177 20.1659C22.9177 17.4252 26.635 15.8854 30.511 15.8854C34.3871 15.8854 38.1044 17.4252 40.8451 20.1659C43.5859 22.9067 45.1256 26.624 45.1256 30.5C45.1256 34.376 43.5859 38.0933 40.8451 40.8341C38.1044 43.5748 34.3871 45.1146 30.511 45.1146C26.635 45.1146 22.9177 43.5748 20.177 40.8341C17.4362 38.0933 15.8965 34.376 15.8965 30.5Z" fill="black"/>
</svg>
