<svg width="54" height="52" viewBox="0 0 54 52" fill="none" xmlns="http://www.w3.org/2000/svg">
<path fill-rule="evenodd" clip-rule="evenodd" d="M2.21939 26.0001C2.21939 12.8376 13.0954 2.16675 26.5111 2.16675C39.9267 2.16675 50.8027 12.8376 50.8027 26.0001C50.8027 39.1626 39.9267 49.8334 26.5111 49.8334C22.2357 49.8334 18.2143 48.7501 14.723 46.8434L3.10272 48.9667L5.26689 37.5657C3.26242 34.0286 2.21335 30.0472 2.21939 26.0001ZM15.794 14.4019C17.2383 12.9827 19.1661 12.8571 20.2063 12.9069C21.1669 12.9502 21.9199 13.4962 22.3793 14.1289L24.4816 17.0192C24.937 17.6452 25.1515 18.4093 25.0868 19.1758C25.0221 19.9422 24.6824 20.6613 24.1283 21.2052L22.6398 22.6634C23.1323 23.8421 24.1194 25.7401 25.4488 27.0422C26.7783 28.3444 28.7106 29.3172 29.9097 29.8004L31.4003 28.3401C31.9545 27.7969 32.687 27.464 33.4677 27.4006C34.2484 27.3371 35.0268 27.5472 35.6646 27.9934L38.6127 30.0539C39.2553 30.5067 39.8141 31.2456 39.8582 32.1859C39.9068 33.2064 39.7787 35.0979 38.3345 36.5171C35.9782 38.8267 32.2814 38.8506 28.9181 37.9449C25.4952 37.0219 22.0061 35.0416 19.6498 32.7319C17.2979 30.4222 15.2773 26.9989 14.3365 23.6384C13.4134 20.3386 13.4377 16.7116 15.794 14.4019Z" fill="black"/>
</svg>
